<?xml version="1.0" encoding="UTF-8"?><svg id="a" xmlns="http://www.w3.org/2000/svg" xmlns:xlink="http://www.w3.org/1999/xlink" viewBox="0 0 301.16 81.44"><defs><style>.ah{clip-path:url(#l)}.ai{clip-path:url(#h)}.aj{clip-path:url(#x)}.ak{stroke-width:5.5px}.ak,.al,.am,.an,.ao{fill:none}.ak,.al,.an,.ao{stroke:#ffffff;stroke-linecap:round}.ak,.al,.ao{stroke-linejoin:round}.ap{clip-path:url(#n)}.aq{clip-path:url(#a`)}.ar{clip-path:url(#ab)}.as{clip-path:url(#t)}.at{clip-path:url(#af)}.au{clip-path:url(#d)}.av{clip-path:url(#v)}.al{stroke-width:5.1px}.aw{clip-path:url(#p)}.ax{clip-path:url(#f)}.ay{clip-path:url(#j)}.an{stroke-miterlimit:10;stroke-width:3px}.b`{clip-path:url(#r)}.ao{stroke-width:5.6px}.ba{clip-path:url(#ad)}</style><clipPath id="d"><path d="M294.82,61.02c-2.29,1.74-4.98,3.48-7.61,3.99-1.52,.05-3.5-.03-4.05-1.69-.74-2.16-.28-5.17,.13-7.57,1.01-5.69,2.91-11.1,4.58-16.72,2.37-8.52,4.22-17.13,5.98-25.79,.36-2.01-2.58-2.59-3.04-.64-1.28,5.69-2.66,11.36-4.15,16.99-1.44,5.72-3.27,11.06-5.13,16.7-.88,2.83-1.7,5.7-2.3,8.68-.58,3.28-1.2,6.33-.13,9.8,1.06,3.58,5.23,5.05,8.62,4.68,3.83-.61,6.9-2.57,9.93-4.78,2.38-1.93-.38-5.48-2.84-3.66Z" style="fill:none;"/></clipPath><clipPath id="f"><path d="M295.22,42.97c-5.57-.07-11.1-.02-16.6-.38-8.57-.71-25.24-1.91-25.3-13.2,.09-5.1,3.03-10.02,7-13.06,2.39-1.81,5.37-2.58,7.57-.84,2.27,2.42-.46,9-1.25,12.13-.31,1.01-.62,2.01-.93,3.02l3.68,.95c.44-1.58,.82-2.91,.82-2.91,1.02-4.53,4.06-11.83-.16-15.68-6.6-4.93-14.27,1.89-17.28,7.73-2.86,5.26-3.4,12.72,1.34,17.08,9.41,8.51,29.13,6.79,41.1,6.9,1.15-.01,1.12-1.72,.01-1.73Z" style="fill:none;"/></clipPath><clipPath id="h"><path d="M265.72,30.65c-2.11,6.9-4.13,13.86-6.87,20.5-2.06,5.1-4.37,10.11-6.81,15.06-1.22,2.82,2.85,4.68,4.2,1.96,4.76-10.11,8.88-20.69,11.74-31.49,0,0,.79-2.8,1.43-5.09l-3.68-.95Z" style="fill:none;"/></clipPath><clipPath id="j"><path d="M247.55,61.42c-.22-1.59-1.42-3-2.39-4.03-2.17-2.52-4.18-5.21-5.91-8.06-.75-1.07-1.38-2.84-1.03-4.12l-1.86-.3c-.44,1.77,.08,3.91,1.08,5.47,1.69,3.03,3.66,5.89,5.83,8.6,.8,1,1.54,1.71,1.7,2.88,.25,3.46-3.98,5.16-7.1,4.89-2.39-.14-4.71-1.17-6.72-2.63-1.87-1.2-3.71,1.53-1.89,2.81,2.45,1.65,5.37,2.83,8.47,2.9,4.51,.32,10.7-2.99,9.82-8.39Z" style="fill:none;"/></clipPath><clipPath id="l"><path d="M238.92,42.01c-1.46,.55-2.26,1.63-2.58,2.9l1.86,.3c.06-.22,.15-.43,.27-.61,.93-1.53,4.51-2.08,3.91,.59-.37,1.01-1.49,2.05-2.27,2.91-2.84,2.89-5.91,5.57-8.99,8.21-.47,.38,.13,1.11,.59,.73,3.22-2.55,6.4-5.12,9.39-7.95,1.06-1.1,2.13-1.89,2.77-3.43,.96-3.2-2.23-4.97-4.96-3.65Z" style="fill:none;"/></clipPath><clipPath id="n"><path d="M223.69,61.75c-1.1,.75-8.42,7.15-8.58,4.67-.63-4.23,1.79-8.42,2.5-12.54,.52-3.6,.26-7.51-1.85-10.65-2.45-3.66-8.13-2.74-10.74,.24-2.04,2.12-4.04,6.15-5.3,10.43l2.56,.67c1.11-3.84,2.85-7.48,4.58-9.31,1.69-1.9,5.22-2.89,6.82-.56,1.61,2.49,1.78,5.83,1.31,8.75-.96,4.55-3.39,8.7-2.6,13.55,2.04,6.9,10.02-.76,13.1-2.85,1.6-1.21-.21-3.6-1.81-2.41Z" style="fill:none;"/></clipPath><clipPath id="p"><path d="M220.66,41.38c-.5-.16-1.03,.14-1.16,.65-1.3,4.15-2.97,8.36-4.47,12.56-1.32,3.94-3.41,8.04-6.56,10.74-1.97,1.68-5.2,2.74-6.7,.34-1.14-2.56-.69-6.95,.52-11.11l-2.56-.67c-1.42,4.84-1.88,9.99-.35,13.08,1.31,2.73,4.92,3.35,7.52,2.34,3.53-1.31,5.9-4.51,7.63-7.59,2.01-3.48,3.39-8.95,4.75-12.75,.69-2.14,1.41-4.23,2-6.47,.12-.47-.14-.96-.61-1.11Z" style="fill:none;"/></clipPath><clipPath id="r"><path d="M194.7,60.48c-.72-.86-2-.98-2.86-.26-1.92,1.59-3.69,3.21-5.53,4.46-.56,.41-1.55,.94-2.13,1.06-.61-2.27,.1-5.19,.69-7.49,1.23-4.82,3.72-9.57,3.71-14.69-.4-2.98-3.16-2.74-5.02-1.35-1.13,.75-2.13,1.61-3.02,2.61-1.9,2.21-3.59,4.5-5.24,6.83,.57-2.46,1-4.94,1.05-7.61-.07-.85-.05-1.48-.7-2.31-2.07-1.93-4.39,1.37-5.54,2.74-2.98,3.98-5.62,8.12-8.04,12.44,.97-3.84,1.69-7.74,1.89-11.73-.08-1.33,.1-3.03-1.3-3.87-3.12-1.41-8.68,9.85-10.2,12.18-.39,.68,.65,1.27,1.04,.61,2.34-3.71,4.51-7.65,7.59-10.74,.29-.26,.63-.5,.84-.56,.03-.01,.04,0,.05-.01,.25,.5,.3,1.5,.27,2.37-.6,7.88-3.35,15.55-5.91,22.99-.46,1.36,1.5,2.16,2.12,.87,2.94-5.99,5.78-12.27,9.69-17.67,1.76-2.62,3.51-5.9,5.93-7.78,.03,.19,.06,.4,.06,.55-.07,4.22-1.39,8.79-2.49,12.93-.13,.44,.03,.93,.43,1.21,.5,.34,1.18,.22,1.53-.28,1.41-1.96,2.86-3.91,4.34-5.83,2.3-2.74,4.48-6.29,7.73-7.84-.02,.29-.06,.63-.13,.97-1.13,5.35-3.9,10.3-4.86,15.75-.56,2.87-.94,8.27,3.3,8.48,1.92-.04,3.01-.79,4.43-1.61,2.24-1.43,4.11-3.07,5.98-4.52,.9-.7,1.05-2.02,.31-2.9Z" style="fill:none;"/></clipPath><clipPath id="t"><path d="M132.09,44.82c1.09-3.8,2.29-7.55,3.7-11.22l-2.48-.74c-1.07,2.65-2.03,5.33-2.9,8.01-2.88,8.77-5.08,17.69-7.49,26.49-.54,2.09,2.54,2.94,3.17,.91,1.45-4.78,3.05-9.56,4.79-14.25,.88-2.19,1.5-4.49,3.01-6.36,1.37-1.76,3.26-3.32,5.16-3.95,4.75-1.48,4.14,6.06,3.8,9.11l-2.95,14.74c-.38,2.05,2.65,2.63,3.09,.63l1.52-7.42c.38-1.94,1.05-5.03,1.42-6.96,2.42-15.52-7.4-16.38-13.83-9Z" style="fill:none;"/></clipPath><clipPath id="v"><path d="M148.98,12.35c-1.16-2.22-3.5-.55-4.4,.79-4.83,5.9-8.44,12.69-11.28,19.73l2.48,.74c2.21-5.75,4.92-11.28,8.46-16.42,.54-.7,2.21-3.13,2.93-3.73,.22,.7,.14,1.81,.03,2.6-.51,3.21-1.63,6.56-3.11,9.4-3.43,5.81-8.67,10.38-13.89,14.62-3.57,2.8-7.29,5.49-11.25,7.65-.66,.33-.13,1.31,.5,.99,4.13-2.15,7.91-4.78,11.59-7.54,3.66-2.79,7.18-5.8,10.34-9.22,4.12-4.23,6.78-9.78,7.79-15.6,.16-1.39,.4-2.53-.2-4Z" style="fill:none;"/></clipPath><clipPath id="x"><path d="M113.63,14.84c2.36-.11,2.24-3.59-.1-3.58,0,0-22.09,.59-22.09,.59-.8,.02-1.52,.57-1.72,1.39l-3.15,12.92c-.51,2.13-1.84,7.63-2.33,9.7-.23,1.07-.56,2.24-.76,3.37-.33,1.57,1.68,2.69,2.84,1.55,11.35-10.29,28.76-.22,25.66,14.79-1.18,6.92-7.28,11.5-14.19,11.65-6.83,.58-13.3-3.98-16.07-10.08-.61-1.28-2.53-.42-1.97,.9,2.37,5.17,6.98,9.29,12.49,10.82,5.53,1.41,11.68,.47,16.3-3.09,9.54-7.68,7.76-23.54-2.69-29.57-5.45-3.24-12.41-3.32-18.02-.52,1.51-6.13,3.62-14.33,5.1-20.21,4.84-.15,20.69-.64,20.69-.64Z" style="fill:none;"/></clipPath><clipPath id="a`"><path d="M70.51,43.33c1.13-.02,2.18-.98,2.21-2.03,.03-1.02-.84-1.86-1.96-1.88-1.27-.02-2.1,.77-2.11,2-.02,1.19,.71,1.93,1.86,1.91Z" style="fill:none;"/></clipPath><clipPath id="ab"><path d="M75.64,60.67c-.71-.83-1.97-.93-2.8-.21-2.37,1.9-4.73,4.53-7.57,5.41-.13,.02-.18,.01-.17,.02,0,0,0,0-.02-.02-.35-.54-.32-1.25-.32-1.9,.54-5.57,2.87-11.17,4.97-16.39,.73-1.55-1.43-2.83-2.43-1.44-1.9,2.64-4.09,5.26-6.24,7.75-2.19,2.53-4.45,5-6.76,7.44-.61,.65,.34,1.61,.99,1.01,2.95-2.73,5.86-5.49,8.66-8.36-1.05,2.77-1.93,5.6-2.49,8.63-.1,.72-.2,1.69-.15,2.43,.07,1.64,.73,3.46,2.43,4.18,4.09,1.39,8.64-3.55,11.62-5.7,.88-.7,1-1.99,.27-2.84Z" style="fill:none;"/></clipPath><clipPath id="ad"><path d="M51.71,12.83c-.75-1.48-2.93-2.03-4.32-1.21-1.49,.78-2.52,2.14-3.39,3.22-3.76,5.28-6.96,10.79-9.87,16.45,1.11-8.78,1.33-17.92-2.49-19.7-1.75-.92-3.83,.06-5,1.32-3.73,3.96-6.2,8.8-8.9,13.41-2.93,5.21-5.75,10.51-8.26,15.97-1.32,2.88-2.59,5.8-3.72,8.78l2.37,.99c1.19-2.9,2.53-5.74,3.88-8.57,3.92-7.9,8.35-15.68,13.2-23.05,1.2-1.74,2.41-3.51,3.89-4.93,.41-.42,1.03-.74,.92-.65,0,0,.02,0,.04,.01,.17,.24,.49,.88,.6,1.57,.7,4.1,.1,8.49-.39,12.69-.78,5.8-1.92,11.62-3.24,17.36-.23,1.02,.29,2.1,1.28,2.53,1.14,.5,2.47-.04,2.95-1.19,3.06-7,6.5-13.96,10.32-20.59,1.98-3.2,3.84-6.75,6.22-9.59-.02,.92-.09,1.88-.15,2.69-1.58,15.51-4.48,30.92-4.38,46.65,.13,3.38,5.05,3.29,5.1-.06-.11-11.46,1.32-23.07,2.74-34.51,.47-3.86,.98-7.72,1.3-11.71,.07-2.65,.61-5.22-.69-7.89Z" style="fill:none;"/></clipPath><clipPath id="af"><path d="M3.15,28.44c-.51-.58-1.35,.19-.86,.75,4.07,5.1,7.38,11.09,8.71,17.51,.84,4.97-.57,10.11-2.54,14.67-.96,2.03-2.19,4.39-3.81,5.78-.3-.89-.21-2.11-.09-3.11,.65-4.12,1.97-8.09,3.56-11.97l-2.37-.99c-1.01,2.66-1.9,5.37-2.61,8.16-.6,2.68-1.31,5.51-.7,8.29,.28,1.43,1.74,2.51,3.18,1.62,1.18-.81,1.76-1.79,2.51-2.87,2.47-3.93,3.92-8.37,4.58-12.94,1.32-9.23-3.98-17.97-9.56-24.9Z" style="fill:none;"/></clipPath></defs><line id="b" x1="2.72" y1="1.5" x2="2.72" y2="1.5" style="fill:none; stroke:#ffffff; stroke-linecap:round; stroke-miterlimit:10; stroke-width:0px;"><animate attributeName="x2" begin="3.6s" dur="0.2s" to="299.66" repeatCount="1" fill="freeze" /><animate attributeName="stroke-width" begin="3.6s" dur="0.01s" to="3px" repeatCount="1" fill="freeze" /></line><g id="H3"><g style="clip-path:url(#d);"><path d="M292.44,13.28c-1.47,6.94-4.68,21.08-7.2,28.59-7.49,22.3-4.62,25.51,1.59,25.76,2.75,.11,7.36-2.71,9.5-4.41" style="fill:none; stroke:#ffffff; stroke-linecap:round; stroke-linejoin:round; stroke-width:5.1px;" stroke-dasharray="100%" stroke-dashoffset="100%"><animate attributeName="stroke-dashoffset" begin="3.5s" dur="0.6s" to="0%" repeatCount="1" fill="freeze" /></path></g></g><g id="H2"><g style="clip-path:url(#f);"><path d="M295.52,43.5c-14.88-.1-49.6,1.87-42.26-19.97,1.54-4.59,8.09-13.05,14.58-10.47,4.47,1.78,3.26,6.95,.41,16.42-.56,1.87-1.09,3.7-1.62,5.56" style="fill:none; stroke:#ffffff; stroke-linecap:round; stroke-linejoin:round; stroke-width:5.1px;" stroke-dasharray="100%" stroke-dashoffset="100%"><animate attributeName="stroke-dashoffset" begin="2.8s" dur="0.6s" to="200%" repeatCount="1" fill="freeze" /></path></g></g><g id="H1"><g style="clip-path:url(#h);"><path d="M267.58,31.4c-2.3,7.97-6.47,21.29-13.78,36.51" style="fill:none; stroke:#ffffff; stroke-linecap:round; stroke-linejoin:round; stroke-width:5.1px;" stroke-dasharray="100%" stroke-dashoffset="100%"><animate attributeName="stroke-dashoffset" begin="2.5s" dur="0.6s" to="200%" repeatCount="1" fill="freeze" /></path></g></g><g id="s2"><g style="clip-path:url(#j);"><path d="M238.35,43.35c-2.2,1.88-.5,5.39-.5,5.39,0,0,2.45,4.78,7.26,10.31,4.86,5.6-4.84,13.37-14.81,6.39" style="fill:none; stroke:#ffffff; stroke-linecap:round; stroke-linejoin:round; stroke-width:5.1px;" stroke-dasharray="100%" stroke-dashoffset="100%"><animate attributeName="stroke-dashoffset" begin="2.8s" dur="0.6s" to="0%" repeatCount="1" fill="freeze" /></path></g></g><g id="s1"><g style="clip-path:url(#l);"><path d="M231.59,56.48s9.66-7.84,11.41-10.59c1.12-1.78-.05-4.19-2.65-3.55-.84,.2-1.73,.9-2.18,1.29" style="fill:none; stroke:#ffffff; stroke-linecap:round; stroke-linejoin:round; stroke-width:5.1px;" stroke-dasharray="100%" stroke-dashoffset="100%"><animate attributeName="stroke-dashoffset" begin="2.7s" dur="0.6s" to="0%" repeatCount="1" fill="freeze" /></path></g></g><g id="a2"><g style="clip-path:url(#n);"><path d="M224.77,62.85c-4.8,3.61-13.01,10.96-10.51-1.5,.2-.98,.72-2.64,1.36-4.58,2.41-6.34,.53-13.72-2.88-14.55-5.11-1.25-8.51,2.95-10.85,9.78-.82,2.4-1.51,5.08-1.82,7.57" style="fill:none; stroke:#ffffff; stroke-linecap:round; stroke-linejoin:round; stroke-width:5.1px;" stroke-dasharray="100%" stroke-dashoffset="100%"><animate attributeName="stroke-dashoffset" begin="2.1s" dur="0.6s" to="200%" repeatCount="1" fill="freeze" /></path></g></g><g id="a1"><g style="clip-path:url(#p);"><path d="M200.62,55.94c-.51,4.16-.84,11.5,2.05,12.26,5.35,1.42,10.14-4.99,12.56-11.33,1.24-3.73,4.28-12.06,4.94-14.61" style="fill:none; stroke:#ffffff; stroke-linecap:round; stroke-linejoin:round; stroke-width:5.1px;" stroke-dasharray="100%" stroke-dashoffset="100%"><animate attributeName="stroke-dashoffset" begin="1.9s" dur="0.6s" to="200%" repeatCount="1" fill="freeze" /></path></g></g><g id="m"><g style="clip-path:url(#r);"><path d="M152.96,53.7c7.08-12.12,10.21-14.75,10.13-8.65-.1,7.77-5.69,23.39-5.69,23.39,0,0,6.31-13.47,9.77-17.78,14-22.47,5.5,6.6,5.5,6.6,0,0,7.26-10.53,10-12.77,9.5-7.78,1.03,9.67-.08,15.6-2.5,13.35,5.71,5.47,10.51,1.61" style="fill:none; stroke:#ffffff; stroke-linecap:round; stroke-linejoin:round; stroke-width:5.1px;" stroke-dasharray="100%" stroke-dashoffset="100%"><animate attributeName="stroke-dashoffset" begin="1.9s" dur="0.6s" to="0%" repeatCount="1" fill="freeze" /></path></g></g><g id="h2"><g style="clip-path:url(#t);"><path d="M134.2,31.74c-2.68,6.39-5.3,14.27-7.43,21.81l.54,3.16c-1,3.84-1.99,7.76-3.03,11.75,0,0,2.83-9.51,6.29-18.05,1.65-4.06,6.31-8.04,9.71-7.82,5.79,.38,3.86,11.54,3.86,11.54l-2.93,14.43" style="fill:none; stroke:#ffffff; stroke-linecap:round; stroke-linejoin:round; stroke-width:5.1px;" stroke-dasharray="100%" stroke-dashoffset="100%"><animate attributeName="stroke-dashoffset" begin="1.6s" dur="0.6s" to="0%" repeatCount="1" fill="freeze" /></path></g></g><g id="h1"><g style="clip-path:url(#v);"><path d="M119.45,47.97c6-3.04,22.69-14.85,26.61-24.21,3.92-9.36,2.83-14.23-.28-10.37-4.27,5.3-8.58,12.83-11.21,19.11" style="fill:none; stroke:#ffffff; stroke-linecap:round; stroke-linejoin:round; stroke-width:5.1px;" stroke-dasharray="100%" stroke-dashoffset="100%"><animate attributeName="stroke-dashoffset" begin="1.4s" dur="0.6s" to="0%" repeatCount="1" fill="freeze" /></path></g></g><g id="5"><g style="clip-path:url(#x);"><path d="M80.08,58.26c2.84,6.21,9.09,10.78,15.88,10.78,11.21,0,16.96-7.44,16.96-16.61,0-7.54-6.17-16.61-16.96-16.61-4.41,0-8.43,1.65-11.45,4.36,.22-1.42,6.32-25.82,6.32-25.82l22.08-.64" style="fill:none; stroke:#ffffff; stroke-linecap:round; stroke-linejoin:round; stroke-width:5.5px;" stroke-dasharray="100%" stroke-dashoffset="100%"><animate attributeName="stroke-dashoffset" begin="0.8s" dur="0.6s" to="200%" repeatCount="1" fill="freeze" /></path></g></g><g id="i2"><g style="clip-path:url(#a`);"><path d="M70.48,43.58c-1.3,.02-2.11-.82-2.1-2.15,.02-1.39,.96-2.28,2.38-2.25,1.26,.02,2.24,.96,2.2,2.12-.04,1.18-1.22,2.26-2.49,2.29Z" style="fill:#ffffff;" stroke-dasharray="100%" stroke-dashoffset="100%"><animateTransform attributeName="transform" dur="1s" from="500 500" to="0 0" repeatCount="1" fill="freeze" /></path></g></g><g id="i1"><g style="clip-path:url(#ab);"><path d="M74.11,62.14c-3.89,3.22-9.47,8.33-10.86,4.1-1.5-4.32,5.2-19.1,5.2-19.1,0,0-3.99,5.36-13.64,14.84" style="fill:none; stroke:#ffffff; stroke-linecap:round; stroke-linejoin:round; stroke-width:5.1px;" stroke-dasharray="100%" stroke-dashoffset="100%"><animate attributeName="stroke-dashoffset" begin="0.3s" dur="0.6s" to="200%" repeatCount="1" fill="freeze" /></path></g></g><g id="M2"><g style="clip-path:url(#ad);"><path d="M6.23,54.01c1.83-5.01,4.68-11.39,8.93-19.32C26.51,13.95,28.96,13,30.66,13.52c5.75,1.87-2.85,33.15-3.08,34.21l1.68-.37s5.17-12.33,12.02-23.68c17.15-28.45,4.33,11.61,4.59,43.66" style="fill:none; stroke:#ffffff; stroke-linecap:round; stroke-linejoin:round; stroke-width:5.6px;" stroke-dasharray="100%" stroke-dashoffset="100%"><animate attributeName="stroke-dashoffset" begin="0.2s" dur="0.6s" to="0%" repeatCount="1" fill="freeze" /></path></g></g><g id="M1"><g style="clip-path:url(#af);"><path d="M2.55,28.46s7.14,8.17,9.09,17.83c1.36,6.72-2.33,17.27-6.23,21.16-2.19,2.19-3.95-1.73,.59-14.18" style="fill:none; stroke:#ffffff; stroke-linecap:round; stroke-linejoin:round; stroke-width:5.1px;" stroke-dasharray="100%" stroke-dashoffset="100%"><animate attributeName="stroke-dashoffset" dur="0.6s" to="0%" repeatCount="1" fill="freeze" /></path></g></g><line id="ag" x1="2.72" y1="79.94" x2="2.72" y2="79.94" style="fill:none; stroke:#ffffff; stroke-linecap:round; stroke-miterlimit:10; stroke-width:0px;"><animate attributeName="x2" begin="3.9s" dur="0.2s" to="299.66" repeatCount="1" fill="freeze" /><animate attributeName="stroke-width" begin="3.9s" dur="0.01s" to="3px" repeatCount="1" fill="freeze" /></line></svg>