<?xml version="1.0" encoding="UTF-8"?><svg xmlns="http://www.w3.org/2000/svg" xmlns:xlink="http://www.w3.org/1999/xlink" viewBox="0 0 512 512"><defs><style>.ax{fill:url(#ai);}.ay{fill:#4d51a2;}.ay,.b`,.ba,.bb,.bc{opacity:.79;}.bd{fill:url(#y);}.be{fill:url(#aq);}.bf{fill:url(#u);}.bg{fill:url(#as);}.bh{fill:url(#m);}.bi{fill:url(#aw);}.bj{fill:url(#ao);}.bk{fill:url(#ae);}.b`{fill:#ec1f2f;}.ba{fill:silver;}.bl{fill:url(#ak);}.bm{fill:url(#au);}.bb{fill:#55bb7a;}.bn{fill:#1d1d1d;}.bo{fill:url(#am);}.bp{fill:url(#aa);}.bq{fill:url(#s);}.br{fill:url(#ac);}.bs{fill:url(#w);}.bt{fill:url(#o);}.bu{fill:url(#q);}.bv{fill:url(#ag);}.bc{fill:#f6bc16;}.bw{fill:url(#k);}</style><radialGradient id="k" cx="174.02" cy="190.96" fx="174.02" fy="190.96" r="15.33" gradientTransform="matrix(1, 0, 0, 1, 0, 0)" gradientUnits="userSpaceOnUse"><stop offset="0" stop-color="#5fbb5a"/><stop offset="1" stop-color="#39b44a"/></radialGradient><radialGradient id="m" cx="206.81" fx="206.81" r="15.33" xlink:href="#k"/><radialGradient id="o" cx="239.6" fx="239.6" r="15.33" xlink:href="#k"/><radialGradient id="q" cx="272.4" fx="272.4" r="15.33" xlink:href="#k"/><radialGradient id="s" cx="305.19" fx="305.19" r="15.33" xlink:href="#k"/><radialGradient id="u" cx="337.98" fx="337.98" r="15.33" xlink:href="#k"/><radialGradient id="w" cy="223.48" fy="223.48" r="15.33" xlink:href="#k"/><radialGradient id="y" cx="206.81" cy="223.48" fx="206.81" fy="223.48" r="15.33" xlink:href="#k"/><radialGradient id="aa" cx="239.6" cy="223.48" fx="239.6" fy="223.48" r="15.33" xlink:href="#k"/><radialGradient id="ac" cx="272.4" cy="223.48" fx="272.4" fy="223.48" r="15.33" xlink:href="#k"/><radialGradient id="ae" cx="305.19" cy="223.48" fx="305.19" fy="223.48" r="15.33" xlink:href="#k"/><radialGradient id="ag" cx="337.98" cy="223.48" fx="337.98" fy="223.48" r="15.33" xlink:href="#k"/><radialGradient id="ai" cx="174.02" cy="256" fx="174.02" fy="256" r="15.33" gradientTransform="matrix(1, 0, 0, 1, 0, 0)" gradientUnits="userSpaceOnUse"><stop offset="0" stop-color="#f8c543"/><stop offset="1" stop-color="#f6bc16"/></radialGradient><radialGradient id="ak" cx="206.81" fx="206.81" r="15.33" xlink:href="#ai"/><radialGradient id="am" cx="272.4" fx="272.4" xlink:href="#ai"/><radialGradient id="ao" cx="337.98" fx="337.98" xlink:href="#ai"/><radialGradient id="aq" cy="288.52" fy="288.52" xlink:href="#ai"/><radialGradient id="as" cx="206.81" cy="288.52" fx="206.81" fy="288.52" r="15.33" xlink:href="#ai"/><radialGradient id="au" cx="337.98" cy="288.52" fx="337.98" fy="288.52" xlink:href="#ai"/><radialGradient id="aw" cx="174.02" cy="321.04" fx="174.02" fy="321.04" r="15.33" gradientTransform="matrix(1, 0, 0, 1, 0, 0)" gradientUnits="userSpaceOnUse"><stop offset="0" stop-color="#ef4a34"/><stop offset="1" stop-color="#ec1c24"/></radialGradient></defs><g id="a"><rect id="b" x="0" y="0" width="512" height="512" rx="256" ry="256" style="fill:#1d1d1d;"/></g><g id="c"><rect x="100.51" y="100.54" width="310.98" height="310.93" transform="translate(-36 41.97)rotate(-8.76)" style="fill:#ec1f2f; opacity:.79;"><animateTransform attributeName="transform" attributeType="XML2" type="rotate" from="0 256 256" to="360 256 256" dur="40s" repeatCount="indefinite" additive="sum"/></rect></g><g id="d"><rect x="100.51" y="100.54" width="310.98" height="310.93" transform="translate(29.33 -26.3)rotate(6.24)" style="fill:#ec1f2f; opacity:.79;"><animateTransform attributeName="transform" attributeType="XML" type="rotate" from="0 256 256" to="360 256 256" dur="40s" repeatCount="indefinite" additive="sum"/></rect></g><g id="e"><rect x="100.51" y="100.54" width="310.98" height="310.93" transform="translate(110.13 -75.35)rotate(21.24)" style="fill:#55bb7a; opacity:.79;"><animateTransform attributeName="transform" attributeType="XML2" type="rotate" from="0 256 256" to="360 256 256" dur="40s" repeatCount="indefinite" additive="sum"/></rect></g><g id="f"><rect x="100.51" y="100.54" width="310.98" height="310.93" transform="translate(200.87 -101.82)rotate(36.24)" style="fill:#f6bc16; opacity:.79;"><animateTransform attributeName="transform" attributeType="XML2" type="rotate" from="0 256 256" to="360 256 256" dur="40s" repeatCount="indefinite" additive="sum"/></rect></g><g id="g"><rect x="100.51" y="100.54" width="310.98" height="310.93" transform="translate(295.43 -103.89)rotate(51.25)" style="fill:#4d51a2; opacity:.79;"><animateTransform attributeName="transform" attributeType="XML2" type="rotate" from="0 256 256" to="360 256 256" dur="40s" repeatCount="indefinite" additive="sum"/></rect></g><g id="h"><rect x="100.51" y="100.54" width="310.98" height="310.93" transform="translate(387.14 -81.45)rotate(66.24)" style="fill:silver; opacity:.79;"><animateTransform attributeName="transform" attributeType="XML2" type="rotate" from="0 256 256" to="360 256 256" dur="40s" repeatCount="indefinite" additive="sum"/></rect></g><g id="i"><ellipse cx="256" cy="256" rx="155.49" ry="155.46" style="fill:#1d1d1d;"/></g><g id="j"><rect x="158.63" y="175.7" width="30.79" height="30.52" style="fill:url(#k);"/></g><g id="l"><rect x="191.42" y="175.7" width="30.79" height="30.52" style="fill:url(#m);"/></g><g id="n"><rect x="224.21" y="175.7" width="30.79" height="30.52" style="fill:url(#o);"/></g><g id="p"><rect x="257" y="175.7" width="30.79" height="30.52" style="fill:url(#q);"/></g><g id="r"><rect x="289.79" y="175.7" width="30.79" height="30.52" style="fill:url(#s);"/></g><g id="t"><rect x="322.58" y="175.7" width="30.79" height="30.52" style="fill:url(#u);"/></g><g id="v"><rect x="158.63" y="208.22" width="30.79" height="30.52" style="fill:url(#w);"/></g><g id="x"><rect x="191.42" y="208.22" width="30.79" height="30.52" style="fill:url(#y);"/></g><g id="a`"><rect x="224.21" y="208.22" width="30.79" height="30.52" style="fill:url(#aa);"/></g><g id="ab"><rect x="257" y="208.22" width="30.79" height="30.52" style="fill:url(#ac);"/></g><g id="ad"><rect x="289.79" y="208.22" width="30.79" height="30.52" style="fill:url(#ae);"/></g><g id="af"><rect x="322.58" y="208.22" width="30.79" height="30.52" style="fill:url(#ag);"/></g><g id="ah"><rect x="158.63" y="240.74" width="30.79" height="30.52" style="fill:url(#ai);"/></g><g id="aj"><rect x="191.42" y="240.74" width="30.79" height="30.52" style="fill:url(#ak);"/></g><g id="al"><rect x="257" y="240.74" width="30.79" height="30.52" style="fill:url(#am);"/></g><g id="an"><rect x="322.58" y="240.74" width="30.79" height="30.52" style="fill:url(#ao);"/></g><g id="ap"><rect x="158.63" y="273.26" width="30.79" height="30.52" style="fill:url(#aq);"/></g><g id="ar"><rect x="191.42" y="273.26" width="30.79" height="30.52" style="fill:url(#as);"/></g><g id="at"><rect x="322.58" y="273.26" width="30.79" height="30.52" style="fill:url(#au);"/></g><g id="av"><rect x="158.63" y="305.78" width="30.79" height="30.52" style="fill:url(#aw);"/></g></svg>